<?xml version="1.0" standalone="no"?>
<!DOCTYPE svg PUBLIC "-//W3C//DTD SVG 20010904//EN"
 "http://www.w3.org/TR/2001/REC-SVG-20010904/DTD/svg10.dtd">
<svg version="1.0" xmlns="http://www.w3.org/2000/svg"
 width="600.000000pt" height="600.000000pt" viewBox="0 0 600.000000 600.000000"
 preserveAspectRatio="xMidYMid meet">
<metadata>
Created by potrace 1.14, written by Peter Selinger 2001-2017
</metadata>
<g transform="translate(0.000000,600.000000) scale(0.100000,-0.100000)"
fill="#000000" stroke="none">
<path d="M2970 4995 c-10 -12 -10 -21 -1 -42 10 -23 7 -36 -34 -119 -70 -145
-140 -182 -204 -109 -45 52 -69 105 -64 141 4 23 0 33 -12 38 -35 13 -59 -30
-31 -53 11 -10 14 -29 10 -84 -3 -40 -8 -79 -11 -87 -8 -24 -56 78 -49 105 7
27 -14 48 -38 39 -20 -8 -21 -33 -1 -48 25 -18 47 -132 40 -198 -4 -32 -5 -58
-2 -58 3 0 43 9 89 21 163 41 550 37 702 -7 27 -8 54 -14 59 -14 6 0 7 25 4
63 -8 72 13 175 37 189 20 11 21 32 1 48 -22 18 -47 -5 -39 -35 7 -27 -41
-129 -49 -105 -3 8 -8 48 -11 88 -4 58 -2 74 10 79 18 7 18 37 0 52 -24 20
-48 2 -43 -33 5 -36 -19 -89 -64 -141 -67 -75 -138 -34 -212 124 -33 69 -38
88 -28 103 25 40 -29 79 -59 43z"/>
<path d="M712 4542 c6 -103 39 -174 120 -259 164 -170 506 -327 983 -451 218
-57 252 -79 331 -212 125 -212 185 -305 332 -512 122 -171 276 -323 444 -437
l77 -52 78 52 c116 78 235 181 318 278 110 128 272 358 391 559 59 97 121 192
138 210 40 43 103 75 191 96 373 90 719 224 909 350 104 69 199 168 233 242
28 62 45 196 25 208 -5 3 -20 -10 -32 -30 -93 -158 -284 -290 -552 -382 -122
-42 -267 -82 -503 -137 -195 -46 -265 -70 -314 -106 l-41 -29 5 43 6 42 -68
33 c-44 21 -78 45 -96 69 -37 50 -60 133 -54 196 l4 50 -71 32 c-101 47 -226
84 -336 101 -123 18 -339 18 -463 -1 -104 -16 -273 -68 -353 -108 l-47 -24 -2
-74 c-2 -126 -54 -205 -162 -251 l-54 -23 5 -43 6 -44 -30 25 c-44 38 -118 62
-386 127 -361 88 -498 132 -646 206 -153 77 -250 156 -324 265 -26 38 -52 69
-57 69 -6 0 -8 -32 -5 -78z m2524 -127 c107 -19 180 -40 255 -72 60 -26 69
-41 69 -114 0 -83 77 -197 163 -244 44 -24 45 -26 12 -170 -84 -369 -237 -658
-473 -892 -84 -82 -239 -203 -261 -203 -25 0 -167 110 -262 203 -233 229 -370
483 -465 857 -42 164 -42 183 -8 198 100 46 184 186 184 308 0 28 5 34 50 53
74 32 165 58 255 75 110 20 369 20 481 1z"/>
<path d="M2981 4321 c-11 -38 -13 -40 -58 -43 l-47 -3 37 -25 c24 -16 35 -30
31 -40 -3 -8 -8 -28 -11 -44 l-6 -29 38 26 38 26 32 -25 c17 -13 34 -24 37
-24 3 0 -1 19 -9 42 -13 40 -13 44 4 55 61 41 61 42 11 43 -46 0 -47 1 -59 40
-7 22 -15 40 -19 40 -4 0 -12 -18 -19 -39z"/>
<path d="M2625 4252 c-5 -25 -12 -32 -30 -32 -34 0 -40 -18 -10 -32 22 -10 25
-15 19 -47 l-7 -36 26 24 c25 23 27 23 52 7 33 -22 39 -17 24 18 -11 23 -9 29
11 51 l23 25 -36 0 c-20 0 -37 4 -37 8 0 5 -6 17 -14 27 -13 18 -14 17 -21
-13z"/>
<path d="M3350 4258 c-11 -23 -20 -28 -48 -28 l-35 0 23 -25 c20 -21 22 -28
12 -50 -13 -28 -4 -32 30 -14 16 9 25 6 45 -13 l26 -23 -7 36 c-6 31 -3 37 19
47 23 10 36 34 18 31 -35 -6 -51 4 -60 34 l-10 32 -13 -27z"/>
<path d="M2470 4060 c0 -5 10 -10 23 -10 45 0 47 -10 47 -261 0 -131 -3 -244
-6 -253 -3 -9 -14 -16 -24 -16 -11 0 -22 -4 -25 -10 -4 -6 35 -10 109 -10 71
0 116 4 116 10 0 6 -13 10 -29 10 -37 0 -41 12 -41 121 l0 89 38 0 c34 0 40
-5 70 -50 18 -27 55 -76 82 -109 l50 -60 0 -134 c0 -137 -5 -157 -42 -157 -10
0 -18 -4 -18 -10 0 -6 47 -10 120 -10 73 0 120 4 120 10 0 6 -14 10 -30 10
-41 0 -50 27 -50 156 l0 104 83 2 c45 1 110 3 145 3 l62 1 0 -107 c0 -121 -10
-159 -40 -159 -11 0 -20 -4 -20 -10 0 -6 47 -10 120 -10 73 0 120 4 120 10 0
6 -10 10 -22 10 -52 1 -53 2 -56 252 -2 128 0 243 3 255 4 16 13 23 30 23 14
0 25 5 25 10 0 6 -45 10 -115 10 -70 0 -115 -4 -115 -10 0 -5 13 -10 29 -10
37 0 41 -12 41 -121 l0 -89 -145 0 -145 0 0 93 c0 96 8 117 42 117 10 0 18 5
18 10 0 6 -45 10 -115 10 -70 0 -115 -4 -115 -10 0 -5 14 -10 30 -10 35 0 43
-13 38 -64 l-3 -37 -44 56 -43 57 35 36 c47 50 57 72 57 131 0 65 -39 113
-104 130 -56 14 -306 15 -306 1z m270 -53 c46 -28 65 -129 35 -187 -17 -34
-43 -50 -79 -50 -55 0 -56 2 -56 137 l0 126 40 -7 c23 -3 50 -12 60 -19z"/>
<path d="M2638 3153 c19 -35 176 -169 284 -242 l77 -52 43 28 c116 75 346 268
334 280 -3 3 -49 -24 -103 -60 -125 -84 -242 -147 -270 -147 -30 0 -170 74
-283 150 -51 34 -87 53 -82 43z"/>
<path d="M635 4205 c13 -62 79 -177 134 -234 177 -182 447 -275 1006 -346 116
-14 237 -32 270 -40 33 -7 62 -12 64 -9 3 2 -9 21 -26 42 -71 90 -178 132
-503 202 -498 106 -729 199 -893 358 -56 55 -58 56 -52 27z"/>
<path d="M5319 4184 c-60 -63 -143 -117 -263 -175 -140 -67 -279 -110 -523
-164 -438 -95 -528 -127 -602 -211 -43 -49 -52 -70 -25 -60 25 10 179 34 354
57 362 46 559 93 740 177 175 81 320 233 359 376 6 22 9 41 8 43 -2 1 -23 -18
-48 -43z"/>
<path d="M890 3736 c0 -26 23 -82 51 -119 37 -52 94 -92 171 -121 133 -50 205
-58 628 -66 217 -4 397 -5 399 -3 9 7 -55 64 -94 83 -53 26 -106 35 -358 66
-246 29 -472 66 -577 94 -82 22 -179 58 -194 72 -15 12 -26 10 -26 -6z"/>
<path d="M5083 3739 c-19 -19 -176 -67 -304 -93 -139 -28 -251 -45 -545 -81
-122 -15 -223 -32 -256 -45 -49 -18 -118 -71 -118 -90 0 -10 618 -2 756 10
294 26 458 120 490 279 7 31 -3 40 -23 20z"/>
<path d="M1121 3369 c23 -44 90 -106 141 -132 142 -72 315 -73 723 -6 143 23
262 44 264 46 3 2 -4 10 -15 17 -36 27 -141 36 -420 36 -331 0 -523 12 -621
40 -89 25 -86 25 -72 -1z"/>
<path d="M4840 3379 c-77 -32 -194 -41 -600 -48 -376 -7 -419 -9 -452 -26 -21
-10 -38 -21 -38 -25 0 -13 534 -92 658 -97 210 -8 341 32 428 132 58 66 59 86
4 64z"/>
<path d="M2125 3163 c-22 -1 -112 -13 -200 -25 -171 -23 -339 -28 -445 -15
l-65 9 35 -30 c44 -38 123 -78 181 -91 66 -16 216 -13 310 5 69 13 384 100
439 121 8 4 -14 12 -50 19 -62 13 -118 14 -205 7z"/>
<path d="M3665 3156 c-70 -15 -75 -12 124 -71 209 -62 331 -85 443 -85 139 0
235 31 323 106 l30 25 -65 -8 c-103 -13 -283 -6 -440 16 -197 27 -340 33 -415
17z"/>
<path d="M2235 2994 c-16 -2 -86 -14 -155 -26 -69 -12 -169 -22 -222 -22 -60
-1 -97 -5 -95 -11 7 -21 104 -64 168 -75 101 -17 184 -3 542 92 75 21 36 35
-113 42 -52 2 -108 2 -125 0z"/>
<path d="M3556 2990 c-86 -16 -86 -21 4 -46 372 -105 499 -115 624 -46 70 38
69 49 -7 44 -40 -3 -118 6 -217 23 -169 29 -327 39 -404 25z"/>
<path d="M490 2540 c0 -5 9 -10 19 -10 47 0 51 -18 51 -234 0 -239 -3 -262
-36 -270 -53 -14 -18 -24 86 -24 89 0 110 2 110 14 0 9 -11 14 -29 14 -35 0
-41 16 -41 121 l0 75 39 -5 c35 -5 45 -14 82 -66 89 -127 130 -155 231 -155
60 0 70 16 19 30 -22 6 -54 24 -70 41 -34 34 -151 175 -151 182 0 2 16 22 35
43 86 93 61 213 -50 243 -51 14 -295 15 -295 1z m273 -70 c23 -26 27 -39 27
-89 0 -82 -23 -111 -91 -111 l-49 0 0 114 c0 82 4 116 13 120 26 11 73 -5 100
-34z"/>
<path d="M3065 2540 c-3 -6 4 -10 17 -10 50 0 53 -8 56 -177 2 -87 1 -195 -3
-240 -6 -79 -8 -83 -31 -83 -14 0 -24 -6 -24 -14 0 -10 25 -13 115 -14 114 0
145 10 83 26 -28 7 -34 14 -40 48 -4 21 -7 76 -7 122 l-1 82 135 0 136 0 -3
-122 c-3 -118 -4 -122 -26 -128 -13 -3 -24 -9 -25 -15 -1 -6 40 -10 108 -10
63 0 112 4 115 10 3 6 -9 11 -26 13 -42 4 -44 16 -44 268 0 171 2 205 16 218
8 9 22 16 30 16 8 0 14 5 14 10 0 6 -45 10 -115 10 -70 0 -115 -4 -115 -10 0
-5 9 -10 19 -10 48 0 51 -7 51 -111 l0 -99 -135 0 -135 0 0 69 c0 100 8 130
36 137 13 3 24 10 24 15 0 12 -217 11 -225 -1z"/>
<path d="M1187 2466 c-142 -40 -215 -198 -153 -332 43 -93 117 -134 242 -134
117 0 218 66 244 160 14 51 12 146 -4 183 -18 42 -71 92 -119 112 -54 22 -152
28 -210 11z m164 -61 c48 -31 72 -85 77 -171 8 -134 -46 -201 -153 -192 -96 8
-153 77 -163 195 -5 68 14 137 46 166 45 41 132 42 193 2z"/>
<path d="M2166 2448 c-100 -234 -177 -404 -188 -410 -7 -4 -21 -9 -30 -12 -42
-13 -12 -24 62 -24 80 1 109 11 70 23 -25 8 -25 30 0 89 l21 46 73 0 73 0 25
-65 c17 -41 22 -67 16 -71 -6 -4 -6 -9 2 -14 15 -9 483 -10 498 -1 13 8 27
101 16 101 -5 0 -17 -14 -26 -30 -16 -28 -21 -30 -81 -30 -36 0 -68 5 -75 12
-8 8 -12 66 -12 195 l0 184 30 6 c62 12 26 23 -75 23 -63 0 -105 -4 -105 -10
0 -5 8 -10 19 -10 39 0 43 -20 39 -220 -2 -150 -6 -193 -17 -199 -20 -13 -83
-3 -101 14 -8 9 -55 108 -105 222 -49 114 -96 208 -103 211 -7 2 -19 -11 -26
-30z m39 -181 l25 -67 -55 0 c-30 0 -55 2 -55 5 0 11 53 136 56 132 2 -2 15
-33 29 -70z"/>
<path d="M3927 2470 c-78 -20 -143 -73 -171 -142 -22 -51 -20 -143 3 -194 23
-49 88 -107 140 -122 50 -16 157 -14 202 2 97 34 159 125 159 230 -1 101 -49
176 -138 213 -43 18 -147 25 -195 13z m148 -61 c17 -10 42 -37 55 -61 21 -36
25 -56 25 -128 0 -95 -16 -134 -65 -164 -35 -20 -112 -21 -150 -1 -60 31 -100
111 -100 199 0 99 31 156 96 176 38 12 102 2 139 -21z"/>
<path d="M4302 2466 c-10 -17 -19 -86 -12 -91 4 -3 15 6 24 20 15 22 23 25 81
25 l65 0 0 -189 c0 -188 -3 -205 -34 -206 -5 0 -11 -5 -13 -11 -2 -7 30 -11
102 -12 76 0 105 3 102 11 -2 7 -15 13 -29 15 -23 3 -26 8 -32 70 -3 37 -6
124 -6 195 l0 127 56 0 c60 0 94 -13 94 -35 0 -8 5 -15 10 -15 6 0 10 22 10
50 l0 49 -206 3 c-118 2 -208 -1 -212 -6z"/>
<path d="M1530 2461 c0 -5 11 -12 25 -15 17 -4 44 -36 88 -104 88 -133 87
-131 87 -222 0 -76 -1 -81 -25 -92 -13 -6 -22 -14 -20 -18 8 -12 207 -10 203
2 -2 6 -15 13 -28 15 -13 2 -26 6 -29 8 -2 3 -6 40 -9 82 -3 70 -1 83 23 128
55 102 118 188 147 199 47 18 32 26 -47 26 -67 0 -96 -11 -62 -23 8 -3 -3 -34
-38 -101 l-49 -96 -26 43 c-61 98 -85 150 -72 154 35 13 2 23 -78 23 -49 0
-90 -4 -90 -9z"/>
<path d="M4770 2460 c0 -5 8 -10 18 -10 38 0 42 -18 42 -199 0 -194 -3 -218
-31 -226 -44 -14 -10 -20 130 -22 169 -3 174 -1 169 69 l-3 43 -15 -30 c-14
-28 -20 -30 -73 -33 -80 -4 -87 4 -87 99 l0 79 49 0 c62 0 81 -7 81 -31 0 -10
4 -19 9 -19 9 0 25 99 18 106 -2 3 -16 0 -31 -6 -15 -5 -50 -10 -77 -10 l-49
0 0 75 0 75 65 0 c61 0 65 -2 71 -25 8 -33 24 -32 24 3 0 15 3 37 6 50 l6 22
-161 0 c-101 0 -161 -4 -161 -10z"/>
<path d="M5170 2461 c0 -5 11 -12 25 -15 l25 -6 0 -200 0 -199 -27 -15 c-16
-8 -26 -16 -23 -16 3 -1 76 -4 162 -6 148 -4 158 -3 168 15 13 25 13 91 0 91
-5 0 -10 -8 -10 -19 0 -32 -24 -42 -97 -39 l-68 3 0 195 c0 195 0 195 23 198
12 2 22 8 22 13 0 5 -45 9 -100 9 -55 0 -100 -4 -100 -9z"/>
<path d="M1186 1878 c4 -7 20 -32 36 -55 18 -26 28 -55 28 -77 0 -25 4 -36 15
-36 11 0 15 11 15 35 0 24 11 53 35 88 23 33 31 53 23 56 -6 2 -19 -7 -27 -19
-44 -66 -44 -66 -74 -21 -15 23 -34 41 -43 41 -9 0 -12 -5 -8 -12z"/>
<path d="M1451 1864 c-25 -21 -31 -33 -31 -65 0 -85 91 -120 152 -59 26 27 30
36 25 68 -12 76 -88 105 -146 56z m103 -26 c43 -60 -20 -133 -79 -94 -19 13
-25 25 -25 54 0 47 14 62 56 62 23 0 38 -7 48 -22z"/>
<path d="M1700 1817 c0 -86 14 -107 72 -107 53 0 68 23 68 108 0 41 -4 72 -10
72 -6 0 -10 -27 -10 -60 0 -47 -4 -64 -20 -80 -11 -11 -24 -20 -30 -20 -5 0
-19 9 -30 20 -16 16 -20 33 -20 80 0 33 -4 60 -10 60 -6 0 -10 -31 -10 -73z"/>
<path d="M1950 1800 c0 -73 3 -90 15 -90 10 0 15 10 15 33 0 46 31 47 62 1 13
-18 29 -34 36 -34 17 0 15 13 -7 42 -20 24 -20 25 0 41 26 23 24 62 -3 81 -13
9 -43 16 -70 16 l-48 0 0 -90z m105 30 c0 -22 -5 -25 -37 -28 -36 -3 -38 -2
-38 28 0 30 2 31 38 28 32 -3 37 -6 37 -28z"/>
<path d="M2257 1883 c-15 -14 -6 -23 23 -23 l30 0 0 -75 c0 -60 3 -75 15 -75
12 0 15 15 15 75 0 73 1 75 25 75 16 0 25 6 25 15 0 12 -14 15 -63 15 -35 0
-67 -3 -70 -7z"/>
<path d="M2527 1878 c-3 -7 -21 -48 -41 -90 -27 -60 -32 -78 -21 -78 9 0 20
10 26 23 9 19 16 22 54 19 33 -3 46 -9 50 -23 4 -10 13 -19 22 -19 8 0 13 6
10 13 -2 6 -20 47 -38 90 -31 73 -50 93 -62 65z m43 -94 c0 -2 -13 -4 -30 -4
l-30 0 17 35 17 35 13 -31 c7 -17 13 -33 13 -35z"/>
<path d="M2739 1861 c-58 -59 -24 -151 56 -151 57 0 75 14 75 60 l0 40 -41 0
c-43 0 -52 -22 -11 -28 31 -5 29 -40 -3 -48 -39 -10 -75 19 -75 61 0 49 24 69
77 61 45 -6 57 6 24 24 -35 18 -71 11 -102 -19z"/>
<path d="M2974 1877 c-3 -8 -4 -47 -2 -88 l3 -74 64 -3 c48 -2 62 0 59 10 -3
8 -24 14 -51 16 l-47 3 0 75 c0 44 -4 74 -10 74 -6 0 -13 -6 -16 -13z"/>
<path d="M3197 1883 c-4 -3 -7 -44 -7 -90 0 -67 3 -83 15 -83 12 0 15 17 15
90 0 83 -5 101 -23 83z"/>
<path d="M3330 1800 c0 -72 3 -90 15 -90 10 0 15 16 17 60 l3 60 48 -60 c26
-33 52 -60 57 -60 6 0 10 39 10 91 0 68 -3 90 -12 87 -8 -3 -15 -29 -18 -61
l-5 -57 -48 60 c-26 33 -52 60 -57 60 -6 0 -10 -38 -10 -90z"/>
<path d="M3590 1800 l0 -90 65 0 c51 0 65 3 65 15 0 11 -12 15 -50 15 -47 0
-50 2 -50 25 0 23 4 25 45 25 25 0 45 5 45 10 0 6 -20 10 -45 10 -41 0 -45 2
-45 25 0 23 3 25 50 25 38 0 50 4 50 15 0 12 -14 15 -65 15 l-65 0 0 -90z"/>
<path d="M3967 1883 c-4 -3 -7 -44 -7 -90 0 -67 3 -83 15 -83 11 0 15 11 15
40 l0 40 45 0 45 0 0 -40 c0 -29 4 -40 15 -40 13 0 15 14 13 87 -2 58 -7 88
-15 91 -9 2 -13 -9 -13 -37 l0 -41 -45 0 -45 0 0 40 c0 38 -8 49 -23 33z"/>
<path d="M4218 1878 c-2 -7 -4 -47 -3 -88 l0 -75 68 -3 c53 -2 68 0 65 10 -3
8 -25 14 -56 16 -48 3 -52 5 -52 28 0 22 4 24 45 24 25 0 45 5 45 10 0 6 -20
10 -45 10 -41 0 -45 2 -45 24 0 23 4 25 53 28 72 4 66 22 -9 26 -44 2 -63 -1
-66 -10z"/>
<path d="M4444 1876 c-10 -26 1 -159 14 -164 8 -2 12 7 12 27 0 26 4 31 25 31
16 0 32 -11 47 -30 12 -16 28 -30 35 -30 18 0 16 10 -8 36 l-21 23 21 27 c27
35 27 48 -5 73 -31 25 -111 29 -120 7z m112 -31 c10 -24 -15 -45 -52 -45 -31
0 -34 3 -34 30 0 28 2 30 40 30 27 0 43 -5 46 -15z"/>
<path d="M4690 1800 l0 -90 66 0 c79 0 86 22 8 30 -41 4 -49 8 -49 25 0 17 8
20 48 23 26 2 47 7 47 13 0 5 -21 9 -47 9 -44 0 -48 2 -48 25 0 23 3 25 53 25
40 0 52 4 52 15 0 12 -14 15 -65 15 l-65 0 0 -90z"/>
<path d="M1312 1572 l-34 -28 34 -26 34 -26 55 16 c47 14 147 17 785 20 l730
3 27 -21 27 -22 -38 -27 c-72 -53 -79 -54 -126 -32 -52 26 -78 26 -99 3 -23
-26 -21 -58 5 -76 28 -20 59 -20 102 -2 33 14 36 13 83 -19 75 -51 77 -55 48
-106 -15 -26 -25 -60 -25 -83 0 -44 30 -114 60 -141 18 -16 20 -16 45 9 59 59
70 144 30 215 -29 51 -27 55 48 106 47 32 50 33 83 19 43 -18 74 -18 102 2 27
18 29 55 4 77 -24 22 -47 21 -99 -4 l-43 -21 -37 23 c-21 12 -48 30 -61 40
l-22 17 27 22 27 21 730 -3 c638 -3 738 -6 785 -20 l55 -16 34 26 34 26 -34
28 c-18 15 -40 25 -48 22 -76 -29 -182 -33 -868 -34 l-703 0 -34 -26 -34 -26
-34 26 -34 26 -704 0 c-687 1 -793 5 -869 34 -8 3 -30 -7 -48 -22z m1752 -149
l55 -37 -59 -43 -60 -43 -59 44 -60 44 52 35 c29 20 58 36 64 36 7 1 37 -16
67 -36z m-264 -34 c0 -10 -63 -12 -73 -2 -4 3 -2 12 4 19 8 9 18 10 40 2 16
-5 29 -14 29 -19z m480 10 c0 -14 -24 -21 -62 -17 l-33 4 34 16 c35 16 61 14
61 -3z m-258 -177 c28 -47 32 -102 10 -142 -11 -19 -25 -35 -32 -35 -17 0 -50
63 -50 94 0 26 37 111 49 111 4 0 14 -13 23 -28z"/>
</g>
</svg>
